<svg width="92" height="102" viewBox="0 0 92 102" fill="none" xmlns="http://www.w3.org/2000/svg">
<path d="M91.8325 19.9948L83.4809 93.5591L45.9401 101.742L8.50283 93.5704L0.159908 19.9948H91.8325Z" fill="#E44D26"/>
<path d="M45.9962 95.4873L76.331 88.8748L83.4676 26.0106H45.9962V95.4873Z" fill="#F16529"/>
<path d="M29.761 44.0584H45.9962V35.0346H17.2187L17.4933 37.4555L20.3141 62.3226H45.9962V53.2988H30.8099L29.761 44.0584V44.0584ZM32.3475 66.8346H20.8269L22.4346 81.0033L45.9434 86.1343L45.9962 86.1231V76.7345L45.9459 76.745L33.1647 74.0314L32.3475 66.8346V66.8346Z" fill="#EBEBEB"/>
<path d="M8.68897 0H14.5211V4.53066H19.8563V0H25.6889V13.72H19.8567V9.12575H14.5215V13.72H8.68933V0H8.68897ZM33.358 4.54988H28.2244V0H44.3281V4.54988H39.1913V13.72H33.3591V4.54988H33.3587H33.358ZM46.8838 0H52.965L56.7058 4.82084L60.443 0H66.5267V13.72H60.7182V6.91961L56.7058 11.7978H56.6051L52.5902 6.91961V13.72H46.8838V0ZM69.4291 0H75.2631V9.18509H83.4648V13.72H69.4287V0H69.4291Z" fill="black"/>
<path d="M45.9567 62.3226H60.0886L58.7562 74.0257L45.9563 76.7422V86.1301L69.4837 81.0033L69.6562 79.4786L72.3534 55.722L72.6334 53.2988H45.9567V62.3226ZM45.9567 44.0363V44.0584H73.6776L73.9076 42.0302L74.4308 37.4555L74.705 35.0346H45.9567V44.0366V44.0363Z" fill="white"/>
</svg>
