<svg width="92" height="102" viewBox="0 0 92 102" fill="none" xmlns="http://www.w3.org/2000/svg">
<path d="M92 19.9879H0L8.62478 93.652L45.9953 102L83.3659 93.652L92 19.9879Z" fill="#E6A329"/>
<path d="M45.9953 25.9895V95.7577L76.274 89.0015L83.6399 25.9895H45.9953Z" fill="#F1BF22"/>
<path d="M70.0838 35.0266H23.5287L20.2861 62.6044L20.3529 62.4328H59.9039L58.6157 74.1012L45.9965 76.9605L33.1911 74.0551L32.424 66.9928H20.8002L22.4584 81.1045L45.9965 86.3674L69.5451 81.1045L72.7878 53.405H30.8126L31.3514 44.1761H60.4742L60.9098 49.4639H72.632L70.0838 35.0266Z" fill="white"/>
<path d="M46.0058 35.0266H23.5287L20.2861 62.6044L20.3529 62.4328H46.0047V53.4364H32.4498L32.9885 44.2075H46.0058V35.0266ZM32.4498 66.9975H20.799L22.4572 81.1018L45.9953 86.3591V76.9734L33.1899 74.0607L32.4498 66.9975Z" fill="#EBEBEB"/>
<path d="M37.0497 9.12281H28.8593V13.7538H42.9119V0H37.0567L37.0497 9.12281ZM63.1371 0.0737867H48.8597V4.88837C50.7662 6.38993 51.7604 7.11212 54.5686 9.28698H48.8597V13.6773H63.136V9.29436L57.433 4.89575H63.1418L63.1371 0.0737867Z" fill="#231F20"/>
</svg>
