<svg width="99" height="69" viewBox="0 0 99 69" fill="none" xmlns="http://www.w3.org/2000/svg">
<path fill-rule="evenodd" clip-rule="evenodd" d="M43.4087 30.1402C42.5289 30.7329 42.6689 31.8991 42.9338 32.7464C43.3238 33.9941 44.1006 35.149 44.9868 36.1446C46.5589 37.9107 49.2278 39.8938 51.6879 38.3433C53.8787 36.9624 55.2606 34.1761 55.7376 31.8291C55.885 31.1038 56.0814 30.0231 55.3886 29.4778C54.3646 28.6718 52.5582 28.8184 51.322 28.9222C50.5078 28.9905 49.7223 29.2224 48.9177 29.1136C47.0484 28.8604 44.9679 29.0897 43.4087 30.1402Z" fill="#FF5678"/>
<path fill-rule="evenodd" clip-rule="evenodd" d="M81.3098 39.3824C79.5275 41.4834 76.4974 41.8154 73.8062 41.7948C72.1902 41.7823 70.571 41.6693 68.9867 41.3632C68.1326 41.1982 67.2841 40.9796 66.4589 40.717C65.9137 40.5435 65.1022 40.4568 64.8702 39.914C64.2583 38.4818 64.7085 36.6858 64.9605 35.2321C65.0887 34.4928 65.1849 33.7489 65.3096 33.0089C65.3893 32.5355 65.4275 32.0116 65.641 31.5687C65.891 31.0499 66.2068 31.1535 66.7356 31.2968C67.464 31.4945 68.2119 31.5766 68.9609 31.6829C70.7888 31.9423 72.3836 32.4653 74.0447 33.2067C75.6874 33.9397 77.2808 34.6632 78.7459 35.6825C79.4882 36.199 80.1279 36.7596 80.7238 37.4179C81.1841 37.9265 81.8712 38.7205 81.3098 39.3824ZM73.519 48.7143C73.5046 48.9405 70.7114 48.2576 70.3438 48.181C67.9319 47.6783 65.4723 47.1057 63.1954 46.1974C61.07 45.3496 59.1975 44.3797 57.525 42.8734C56.7455 42.1713 56.0443 41.432 55.3734 40.6446C55.0371 40.2499 54.5776 40.2957 54.2026 39.9618C53.8653 39.6613 53.6066 39.4267 53.712 38.9774C54.555 39.1838 56.1113 40.4811 56.9851 39.826C57.4831 39.4526 56.7923 39.0625 56.4735 38.8462C55.874 38.4393 55.3614 37.9373 54.8849 37.4105C55.7031 37.5579 56.4647 37.8427 57.1767 38.239C57.4931 38.4151 58.5774 39.0536 58.8298 38.445C58.9852 38.0702 58.2499 37.5993 58.0207 37.392C57.4578 36.883 56.8501 36.2888 56.5513 35.6045C57.2902 35.4452 57.9866 35.9759 58.4899 36.4081C59.0484 36.888 59.7331 37.3917 60.2015 37.9447C60.4431 38.2299 60.4957 38.5667 60.6844 38.8744C60.8968 39.2205 61.2365 39.5171 61.5612 39.7732C62.1868 40.2667 62.9184 40.63 63.6695 40.9305C65.3857 41.6172 67.2251 42.1031 69.0544 42.444C69.9519 42.6113 70.8272 42.6883 71.7381 42.7167C72.446 42.7388 72.7592 42.9355 73.0295 43.5416C73.761 45.1817 73.6282 46.9861 73.519 48.7143ZM52.5122 36.2171C52.103 36.5729 51.5711 36.7962 51.1433 37.1384C50.7668 37.4394 50.3326 37.7606 49.9125 38.0041C49.4639 38.2639 49.1288 38.0818 48.7249 37.8466C48.2508 37.5707 47.7058 37.4589 47.2175 37.2121C45.5291 36.3582 43.4636 34.2658 43.7788 32.3446C43.9124 31.5303 44.3654 30.7291 45.188 30.3596C45.9352 30.0241 47.0212 29.838 47.8205 30.1184C48.2713 30.2766 48.594 30.6259 48.8828 30.9692C49.2196 31.3695 49.3486 31.3064 49.6917 30.9203C50.3056 30.2297 51.3178 29.6238 52.3185 29.6384C52.8159 29.6457 53.3099 29.7432 53.7579 29.935C53.8186 29.961 53.8524 30.0397 53.9133 30.0664C53.9882 30.0991 54.1111 30.031 54.1631 30.0616C54.2943 30.1388 54.4253 30.3799 54.5009 30.5022C54.8045 30.993 55.3511 31.9556 54.8003 32.3689C54.7999 32.3691 54.8248 32.928 54.8172 32.9918C54.7784 33.3253 54.6543 33.6006 54.4945 33.9056C54.0145 34.8217 53.306 35.5271 52.5122 36.2171ZM53.3283 43.9688C52.9406 44.0808 52.523 42.9516 52.8949 42.7714C53.2495 42.5995 53.6794 43.8675 53.3283 43.9688ZM47.2387 42.6187C47.1044 43.0452 47.0477 43.5293 46.7193 43.8764C46.4187 43.5449 46.389 42.9331 46.6806 42.5924C46.8471 42.3979 47.3855 42.1526 47.2387 42.6187ZM59.6461 35.1454C59.644 35.1563 60.1127 35.3645 59.884 35.5924C59.5715 35.9035 59.6145 35.2979 59.6461 35.1454ZM61.5831 31.6692C61.5777 32.1005 60.5952 31.9963 60.6022 31.5626C60.6108 31.0287 61.5888 31.212 61.5831 31.6692ZM60.4103 28.0648C60.5076 27.6699 62.2165 27.1206 62.1699 27.8088C62.1466 28.1538 60.2041 28.9042 60.4103 28.0648ZM42.8915 41.4555C42.7 41.6695 42.4279 41.7538 42.1983 41.9181C41.9574 42.0903 41.7853 42.3136 41.5751 42.5157C40.9975 43.0706 40.3023 43.5266 39.6793 44.0363C38.5337 44.9734 37.4365 45.9807 36.1664 46.7755C33.8969 48.1954 31.265 48.9721 28.6523 49.6522C28.4359 49.7085 27.8123 49.9359 27.5982 49.7665C27.3672 49.5839 27.4847 48.9411 27.4953 48.6981C27.5386 47.7016 27.6636 46.6934 27.6501 45.6985C27.6445 45.2898 27.5157 44.7089 27.7452 44.3349C28.0014 43.9173 28.7167 43.7951 29.1592 43.638C30.504 43.1603 31.7995 42.3545 32.9875 41.6083C34.4478 40.6908 35.9227 39.7581 37.4256 38.9017C38.898 38.0626 40.522 37.5008 42.1645 37.0216C42.2405 37.1701 41.4569 37.6483 41.3673 37.7154C40.9376 38.0368 40.4701 38.37 40.1512 38.7943C39.9254 39.0947 39.6938 39.7745 40.3173 39.7919C40.6196 39.8004 41.0664 39.5287 41.3404 39.4408C41.7931 39.2957 42.2596 39.1938 42.7331 39.1275C42.326 39.544 40.9462 40.2922 41.1972 40.9849C41.4408 41.6571 42.8497 40.8727 43.3347 40.8727C43.2552 41.1071 43.0554 41.2725 42.8915 41.4555ZM26.2467 43.3316C25.3444 43.6265 24.4196 43.7942 23.4884 43.9845C22.6008 44.166 21.7803 44.3027 20.8712 44.1965C19.6159 44.0498 18.2268 43.5667 18.0677 42.2412C17.879 40.6707 19.0725 39.2276 20.0973 38.1009C21.3446 36.73 22.7451 35.5045 24.263 34.3948C25.7791 33.2862 27.4156 32.3088 29.1301 31.4836C30.4344 30.8559 31.9074 30.4748 33.2865 30.0037C33.5489 29.9141 34.2746 29.5992 34.52 29.8602C34.7184 30.0712 34.4484 30.4228 34.358 30.6188C34.1817 31.0008 34.1574 31.3853 34.1119 31.7955C33.9086 33.6273 33.6638 35.4585 33.5512 37.2981C33.5198 37.8108 33.4646 38.3471 33.4968 38.8601C33.5145 39.1443 33.6737 39.5062 33.5677 39.7836C33.364 40.317 32.4311 40.67 31.9367 40.9082C31.0517 41.3346 30.1145 41.6529 29.2203 42.0608C28.2383 42.5088 27.2822 42.9931 26.2467 43.3316ZM38.7601 31.4295C39.0079 31.398 39.3788 31.3353 39.5996 31.4844C39.8875 31.6788 39.812 31.9494 39.5461 32.0904C39.3361 32.2019 38.8446 32.2324 38.6371 32.1312C38.2836 31.9589 38.3434 31.4829 38.7601 31.4295ZM40.1318 35.6711C39.9317 35.9808 39.2002 36.184 39.2639 35.606C39.3186 35.111 40.5004 35.1007 40.1318 35.6711ZM39.8603 26.9447C40.182 27.0605 40.7659 27.1596 40.8613 27.5442C40.9501 27.9022 40.5851 27.8785 40.3217 27.78C40.105 27.6991 39.1398 26.9385 39.8603 26.9447ZM90.2685 40.5999C90.0806 39.9204 90.2237 39.1681 90.12 38.4721C90.0194 37.7974 89.8384 37.1774 89.5787 36.5415C89.0035 35.1338 88.3446 33.8667 87.4123 32.6313C85.6565 30.3048 83.6194 28.2555 81.1595 26.5562C78.731 24.8786 76.0419 23.5153 73.1932 22.5598C70.1725 21.5464 67.1319 21.1938 63.9464 20.9995C62.9951 20.9416 62.0447 20.8729 61.0988 20.7612C60.4075 20.6796 59.5408 20.579 58.8573 20.7758C58.4279 20.8995 58.188 21.2475 58.6558 21.4759C58.9874 21.6378 59.4217 21.6572 59.788 21.7002C59.3455 23.0066 58.6255 24.3174 57.4845 25.2169C56.3706 26.0952 54.88 26.3962 53.4742 26.619C52.7118 26.7397 51.8583 26.8331 51.0841 26.781C50.5946 26.7482 50.2128 26.5376 50.0152 27.0061C49.8782 27.3316 49.8134 27.6887 49.6327 27.1972C49.419 26.6162 49.3142 26.6199 48.6494 26.4549C47.29 26.1174 45.7316 25.8095 44.5456 25.0797C43.3152 24.3224 42.8873 23.0974 42.2004 21.9568C42.0305 21.6749 41.5181 21.1043 41.7799 20.7813C42.0194 20.4858 42.798 20.5153 43.1546 20.4845C43.5309 20.4519 43.9094 20.4506 44.2869 20.437C44.5056 20.4291 44.9456 20.5124 44.8576 20.2088C44.7248 19.7513 43.3025 19.8099 42.9493 19.8025C42.2924 19.7888 41.6265 19.8029 40.973 19.8701C37.7325 20.2031 34.463 20.8189 31.3272 21.6401C25.2434 23.2331 19.3511 26.1687 14.9112 30.3978C10.6493 34.4574 9.29906 41.2129 11.9191 46.3962C13.2807 49.0901 16.2357 50.1967 19.1001 51.0904C20.611 51.5618 22.2109 51.9305 23.817 51.8416C24.5877 51.7989 25.319 51.606 26.0707 51.4608C26.3985 51.3973 26.7716 51.2963 27.1083 51.3218C27.3632 51.3411 27.6081 51.5585 27.8472 51.443C28.0169 51.361 28.0906 51.1256 28.298 51.0253C28.547 50.905 28.8489 50.8615 29.1178 50.8009C29.8653 50.6321 30.589 50.3585 31.3197 50.1342C32.0752 49.9021 32.7881 49.6033 33.513 49.3012C33.8791 49.1486 34.7261 48.5282 34.9647 48.9818C35.0734 49.1888 35.0271 49.588 35.0536 49.8051C35.1 50.1848 35.1545 50.5636 35.2141 50.9417C35.3454 51.774 35.5026 52.6029 35.6637 53.4307C35.9545 54.9245 36.3291 56.3544 36.9556 57.7595C37.4558 58.8814 37.895 60.1531 38.8238 61.0456C39.2293 61.4351 39.7826 61.6105 40.3642 61.4881C41.0257 61.3487 41.355 60.7903 41.7566 60.3388C42.6402 59.3453 44.0989 58.584 45.4459 58.31C47.0955 57.9744 48.7022 58.4652 50.2767 58.8824C51.9421 59.3237 53.6376 59.7442 55.2723 60.2747C56.7955 60.7691 58.4404 61.4992 60.0924 61.4357C61.533 61.3803 62.8787 60.2907 63.9176 59.4602C64.9612 58.626 66.2659 57.4046 67.7664 57.5029C68.5114 57.5517 69.1904 57.8857 69.9161 58.0215C70.7128 58.1706 71.5606 58.1917 72.3707 58.2473C73.3764 58.3162 75.6264 58.0726 75.9984 56.9482C76.0537 56.7814 76.054 56.438 75.817 56.3712C75.5989 56.3099 75.4876 56.5468 75.281 56.5359C74.8607 56.5139 74.5324 55.833 74.3015 55.5694C73.3698 54.5052 72.0917 53.7114 71.0463 52.7499C69.8657 51.6645 68.8578 50.3493 67.9683 49.0521C68.3704 48.955 68.8043 49.1163 69.1935 49.1929C69.6665 49.286 70.1273 49.3985 70.5933 49.5178C71.107 49.6492 71.6279 49.7395 72.1493 49.8397C72.5382 49.9143 73.0545 49.9369 73.4055 50.1181C73.712 50.2765 73.8831 50.4465 74.2636 50.4924C74.6505 50.539 75.0477 50.4997 75.4365 50.4973C76.4878 50.4907 77.5369 50.4725 78.5833 50.3692C82.2807 50.0042 86.2 48.5509 88.4233 45.6666C89.028 44.8821 89.5152 44.013 89.8231 43.0907C90.0633 42.3707 90.4776 41.356 90.2685 40.5999Z" fill="black"/>
<path fill-rule="evenodd" clip-rule="evenodd" d="M55.5898 7.36794C56.5614 7.38072 57.4722 7.64847 58.3775 7.95287C59.1738 8.22052 60.0225 8.46815 60.6664 9.00238C61.8243 9.96339 62.126 11.5546 62.3155 12.916C62.5518 14.6147 61.7652 16.04 61.1032 17.5769C60.484 19.0143 59.3476 20.1787 57.9968 21.066C57.2891 21.5308 56.5069 21.8114 55.6886 22.0574C54.8573 22.3073 54.0523 22.6419 53.1629 22.6406C51.8124 22.6388 50.0833 22.0427 49.508 20.8062C49.2461 20.2432 49.5011 20.1421 50.0252 20.4481C50.7856 20.892 51.5186 21.3711 52.4071 21.568C54.1304 21.95 56.1943 21.3582 57.7053 20.5773C59.2158 19.7966 60.2298 18.6238 60.9075 17.1635C61.5913 15.6903 61.857 14.2387 61.5932 12.6504C61.3698 11.3045 60.9253 10.0751 59.6201 9.34448C56.8026 7.76744 53.0065 7.8945 50.5009 9.944C50.1573 10.225 49.8176 10.4984 49.4635 10.7667C49.2384 10.9372 48.9733 11.1418 49.006 11.4367C49.034 11.6892 49.6134 12.6629 48.9157 12.3638C48.3501 12.1213 48.0427 11.6473 47.3576 11.5886C46.6283 11.526 45.7585 12.0467 45.5403 12.7019C45.3323 13.3271 45.7033 14.1824 46.2845 14.541C46.6444 14.7631 47.0404 14.7288 47.4491 14.7199C47.6519 14.7154 48.2166 14.6541 48.3508 14.8534C48.5883 15.2058 47.7504 15.5763 47.48 15.6542C46.822 15.8439 46.0443 15.6207 45.6661 15.0748C45.2815 14.5199 45.0184 13.8777 44.9654 13.2166C44.9147 12.5832 45.0694 11.942 45.4715 11.4219C45.8992 10.8688 46.771 10.2487 47.5526 10.4409C47.8918 10.5243 48.1643 10.8499 48.4972 10.9118C48.7074 10.9508 48.619 10.9787 48.793 10.834C48.9035 10.7422 49.008 10.5727 49.11 10.4639C49.6966 9.83803 50.2766 9.17013 50.9945 8.66923C52.2818 7.77106 53.9927 7.34685 55.5898 7.36794ZM52.03 19.7757C52.1823 19.4441 52.4619 20.0357 52.5446 20.1347C52.7083 20.3303 53.0933 20.4826 53.0766 20.7713C53.0492 21.2478 52.3503 21.1594 52.1172 20.9108C51.852 20.6278 51.8797 20.1033 52.03 19.7757ZM56.9956 17.5195C57.3727 18.0656 56.9131 18.655 56.615 19.1383C56.33 19.6004 56.0652 20.1228 55.7334 20.5572C55.1826 21.2785 53.9841 20.4982 53.9485 19.7569C53.9213 19.1894 54.3538 19.4365 54.6315 19.6484C54.9173 19.8667 55.0526 19.9211 55.3523 19.6826C55.9549 19.2028 56.2256 18.4005 56.6422 17.7929C56.7248 17.6725 56.8745 17.6 56.9956 17.5195ZM58.0705 17.6951C58.1677 17.9592 57.9637 18.6589 58.5308 18.5889C58.8441 18.5503 58.911 18.1325 59.0757 17.9502C59.6296 17.3371 59.4598 18.4966 59.315 18.7868C58.996 19.4263 58.103 19.867 57.6602 19.0556C57.4955 18.7538 57.4962 18.3729 57.5799 18.0484C57.6254 17.8717 57.8911 17.2075 58.0705 17.6951ZM53.0141 16.4444C52.9638 16.7526 52.6522 17.3664 53.0327 17.5868C53.3675 17.7809 53.9505 17.3595 54.2084 17.1836C54.4762 17.0008 55.0833 16.4763 55.1071 17.129C55.1193 17.4617 54.7609 17.8608 54.5052 18.0525C53.9597 18.4612 52.8261 18.8278 52.424 18.0585C52.205 17.6394 52.3248 17.0428 52.4696 16.6205C52.5869 16.2782 53.1352 15.7002 53.0141 16.4444ZM60.1696 14.7575C60.3916 14.9971 60.9178 15.5339 60.6317 15.8751C60.2972 16.274 59.7536 15.5422 59.5393 15.3386C59.3462 15.1551 58.9401 14.6326 59.1133 14.3555C59.4 13.897 59.9746 14.5472 60.1696 14.7575ZM56.6799 13.7259C57.4056 14.1652 56.4515 14.4816 56.0382 14.5209C55.5378 14.5683 54.8982 14.5998 54.4387 14.3717C53.7874 14.0483 54.0045 13.5598 54.6358 13.4429C55.2831 13.3231 56.1167 13.3849 56.6799 13.7259ZM47.2455 12.3272C47.7791 12.4237 48.3887 12.5493 48.5705 13.09C48.7581 13.6488 48.4885 13.8343 47.9434 13.7085C47.439 13.592 46.6857 13.4749 46.4005 13.0171C46.0598 12.4701 46.7506 12.2379 47.2455 12.3272ZM17.8806 24.3342C17.7015 24.8717 16.795 25.2282 16.343 25.5549C14.7618 26.698 13.2168 27.8881 11.7874 29.1927C11.0454 29.8698 10.4839 30.6889 9.84049 31.442C9.68351 31.6258 9.40542 32.0375 9.09753 31.9988C8.75974 31.9565 8.69145 31.4158 8.70222 31.1797C8.73911 30.3746 9.53043 29.597 10.0947 29.0425C10.7295 28.4191 11.4082 27.8116 12.1013 27.2439C12.8645 26.619 13.6926 26.0819 14.5365 25.5559C15.3651 25.0395 16.1596 24.4429 17.0214 23.9752C17.4274 23.7549 18.1015 23.671 17.8806 24.3342ZM73.15 19.2298C73.81 19.2491 74.454 19.4503 75.0764 19.6371C76.4456 20.0479 77.7496 20.6179 79.0354 21.2136C81.2897 22.2578 83.4591 23.5212 85.4477 24.9577C85.8634 25.2579 86.2896 25.5011 86.7416 25.7466C87.0309 25.9039 87.4434 26.0958 87.5548 26.4163C87.8379 27.231 86.4089 26.4133 86.2061 26.2963L85.9209 26.1319C81.6898 23.6951 77.4637 21.3274 72.6778 19.9299C72.4228 19.8554 72.3435 19.6441 72.4773 19.4346C72.6223 19.2076 72.9048 19.2227 73.15 19.2298ZM17.688 20.9349C17.6574 21.183 17.3551 21.2394 17.1512 21.319C16.3903 21.616 15.6104 21.8693 14.8516 22.1713C13.4432 22.7316 12.1498 23.5448 10.6798 23.9701C10.3439 24.0675 10.2943 23.7524 10.3843 23.538C10.4844 23.2987 10.7853 23.1307 11.0029 22.9923C11.6306 22.5927 12.3425 22.3054 13.0395 22.0278C13.7306 21.7524 14.4422 21.5441 15.1507 21.3133C15.8093 21.0986 16.5736 20.6993 17.2808 20.6698L17.3117 20.6684C17.5368 20.6578 17.7237 20.6437 17.688 20.9349ZM74.3513 17.1664C73.6784 16.9905 74.3141 16.5947 74.714 16.6225C75.1601 16.6536 75.5913 16.8493 76.0143 16.9673C77.3077 17.3282 78.5066 17.7229 79.715 18.2831C79.8952 18.3667 80.6891 18.7632 80.1639 18.9388C79.8 19.0604 78.95 18.5385 78.6375 18.4133C77.2644 17.8631 75.7889 17.5421 74.3513 17.1664Z" fill="black"/>
<path fill-rule="evenodd" clip-rule="evenodd" d="M47.5285 18.4477C47.6126 18.2184 48.6529 15.7116 48.2457 15.636C47.8144 15.5558 47.2379 17.0103 47.1128 17.2731C46.6508 18.2436 46.3772 19.2849 46.1628 20.3259C46.0135 21.0507 45.8823 21.7933 45.9346 22.5344C45.9747 23.1039 46.2279 23.1901 46.645 23.5391C46.645 21.8092 46.9279 20.085 47.5285 18.4477Z" fill="black"/>
</svg>
