<svg width="136" height="90" viewBox="0 0 136 90" fill="none" xmlns="http://www.w3.org/2000/svg">
<g clip-path="url(#clip0_16_84)">
<path d="M67.2324 89.7403C66.7722 89.7403 66.3425 89.6079 65.9433 89.376L61.8609 86.7591C61.2468 86.3945 61.5539 86.2621 61.7382 86.1959C62.5668 85.8978 62.7203 85.8313 63.5798 85.3017C63.6719 85.2352 63.7949 85.2684 63.8868 85.3346L67.0179 87.3553C67.1406 87.4215 67.2941 87.4215 67.386 87.3553L79.6336 79.703C79.7563 79.6368 79.818 79.5041 79.818 79.3387V64.0674C79.818 63.9014 79.7563 63.7693 79.6336 63.7028L67.386 56.0838C67.2633 56.0173 67.1097 56.0173 67.0179 56.0838L54.7702 63.7028C54.6475 63.769 54.5859 63.9347 54.5859 64.0671V79.3384C54.5859 79.4711 54.6475 79.6365 54.7702 79.703L58.1161 81.7899C59.9271 82.7837 61.0628 81.6243 61.0628 80.4649V65.3922C61.0628 65.1935 61.2163 64.9946 61.4312 64.9946H62.9966C63.1809 64.9946 63.3649 65.1603 63.3649 65.3922V80.4649C63.3649 83.0817 62.0449 84.6057 59.7428 84.6057C59.0369 84.6057 58.4844 84.6057 56.9188 83.7774L53.6959 81.7899C52.8978 81.2932 52.4067 80.3654 52.4067 79.3717V64.1004C52.4067 63.1066 52.8978 62.1788 53.6959 61.6821L65.9433 54.0298C66.7108 53.566 67.7546 53.566 68.5219 54.0298L80.7693 61.6821C81.5674 62.1788 82.0587 63.1066 82.0587 64.1004V79.3717C82.0587 80.3654 81.5674 81.2932 80.7693 81.7899L68.5219 89.4422C68.1227 89.6411 67.6624 89.7403 67.2327 89.7403H67.2324ZM71.0081 79.2393C65.6365 79.2393 64.5314 76.5891 64.5314 74.3366C64.5314 74.1376 64.6849 73.939 64.8998 73.939H66.496C66.68 73.939 66.8335 74.0714 66.8335 74.2703C67.0792 76.0259 67.7851 76.8872 71.0389 76.8872C73.6172 76.8872 74.7226 76.2578 74.7226 74.7671C74.7226 73.9058 74.4153 73.2766 70.3943 72.8458C67.0484 72.4812 64.9611 71.6864 64.9611 68.8044C64.9611 66.121 67.0487 64.5309 70.5478 64.5309C74.4767 64.5309 76.4107 65.9886 76.6564 69.1684C76.6564 69.2682 76.6256 69.3674 76.5642 69.4668C76.5026 69.533 76.4107 69.5992 76.3185 69.5992H74.7223C74.5688 69.5992 74.4153 69.4668 74.3848 69.3011C74.0164 67.4794 73.0648 66.8829 70.5478 66.8829C67.7238 66.8829 67.386 67.9431 67.386 68.7379C67.386 69.6987 67.7851 69.9968 71.5913 70.5267C75.3669 71.057 77.1474 71.8188 77.1474 74.6676C77.1166 77.5829 74.9067 79.2393 71.0081 79.2393Z" fill="#539E43"/>
<path d="M29.2313 30.013C29.2313 29.4168 28.9243 28.8533 28.4332 28.5552L15.4183 20.4724C15.2031 20.3397 14.9577 20.2735 14.7123 20.2403H14.5894C14.344 20.2403 14.0983 20.3397 13.8834 20.4724L0.868463 28.5552C0.377122 28.8533 0.0703659 29.4165 0.0703659 30.013L0.101174 51.744C0.101174 52.0421 0.254685 52.3402 0.50009 52.4729C0.745761 52.6385 1.05252 52.6385 1.26764 52.4729L9.00295 47.7026C9.49402 47.4045 9.80105 46.8413 9.80105 46.2451V36.0751C9.80105 35.4789 10.1078 34.9157 10.5991 34.6176L13.8834 32.5637C14.1291 32.398 14.4053 32.3315 14.6815 32.3315C14.9577 32.3315 15.2339 32.398 15.4491 32.5637L18.7334 34.6176C19.2247 34.9157 19.5315 35.4786 19.5315 36.0751V46.2451C19.5315 46.8413 19.8385 47.4045 20.3296 47.7026L28.0649 52.4729C28.3105 52.6385 28.6173 52.6385 28.863 52.4729C29.1086 52.3402 29.2621 52.0421 29.2621 51.744L29.2313 30.013ZM91.7892 0.0994573C91.5438 -0.0332497 91.2367 -0.0332497 91.0216 0.0994573C90.7762 0.265126 90.6227 0.529967 90.6227 0.828056V22.3607C90.6227 22.5593 90.5308 22.758 90.3465 22.8907C90.1624 22.9898 89.9781 22.9898 89.794 22.8907L86.5403 20.87C86.3018 20.7234 86.032 20.6463 85.7575 20.6463C85.483 20.6463 85.2132 20.7234 84.9746 20.87L71.9597 28.986C71.4686 29.2841 71.1616 29.8473 71.1616 30.4435V46.6424C71.1616 47.2385 71.4686 47.802 71.9597 48.1001L84.9746 56.2162C85.2132 56.3628 85.483 56.4398 85.7575 56.4398C86.032 56.4398 86.3018 56.3628 86.5403 56.2162L99.5553 48.1001C100.046 47.802 100.353 47.2388 100.353 46.6424V6.26102C100.353 5.63159 100.046 5.06866 99.5553 4.77029L91.7894 0.0994573H91.7892ZM90.5921 41.3091C90.5921 41.4748 90.5308 41.6072 90.4078 41.6734L85.9571 44.456C85.8949 44.4887 85.8266 44.5057 85.7575 44.5057C85.6883 44.5057 85.6201 44.4887 85.5579 44.456L81.1071 41.6734C80.9842 41.6072 80.9228 41.4416 80.9228 41.3091V35.7438C80.9228 35.5781 80.9842 35.4457 81.1071 35.3795L85.5579 32.5966C85.6201 32.5639 85.6883 32.5469 85.7575 32.5469C85.8266 32.5469 85.8949 32.5639 85.9571 32.5966L90.4078 35.3795C90.5308 35.4454 90.5921 35.6113 90.5921 35.7438V41.3091ZM135.101 35.6113C135.592 35.3132 135.868 34.75 135.868 34.1536V30.2116C135.868 29.6154 135.561 29.0522 135.101 28.7541L122.178 20.6713C121.939 20.5248 121.67 20.4478 121.395 20.4478C121.121 20.4478 120.851 20.5248 120.613 20.6713L107.598 28.7871C107.106 29.0852 106.799 29.6484 106.799 30.2449V46.4437C106.799 47.0399 107.106 47.6031 107.598 47.9012L120.52 55.8516C121.012 56.1497 121.595 56.1497 122.055 55.8516L129.882 51.1481C130.128 51.0154 130.282 50.7173 130.282 50.4192C130.282 50.1211 130.128 49.823 129.882 49.6903L116.806 41.5743C116.561 41.4089 116.407 41.1438 116.407 40.8457V35.7773C116.407 35.4792 116.561 35.1811 116.806 35.0484L120.889 32.5307C121.008 32.4495 121.147 32.4065 121.288 32.4065C121.429 32.4065 121.567 32.4495 121.687 32.5307L125.769 35.0484C126.015 35.2141 126.168 35.4789 126.168 35.7773V39.7525C126.168 40.0506 126.322 40.3487 126.567 40.4811C126.813 40.6467 127.12 40.6467 127.365 40.4811L135.101 35.6113V35.6113Z" fill="#333333"/>
<path d="M121.196 34.8495C121.241 34.8171 121.295 34.7999 121.349 34.7999C121.404 34.7999 121.457 34.8171 121.503 34.8495L123.989 36.4064C124.081 36.4724 124.142 36.5718 124.142 36.7045V39.8184C124.142 39.9508 124.081 40.0503 123.989 40.1165L121.503 41.6734C121.457 41.7058 121.404 41.723 121.349 41.723C121.295 41.723 121.241 41.7058 121.196 41.6734L118.709 40.1165C118.617 40.0503 118.556 39.9508 118.556 39.8184V36.7045C118.556 36.5718 118.617 36.4724 118.709 36.4064L121.196 34.8495V34.8495Z" fill="#539E43"/>
<mask id="mask0_16_84" style="mask-type:alpha" maskUnits="userSpaceOnUse" x="35" y="20" width="30" height="37">
<path d="M50.9946 20.7375C50.756 20.591 50.4863 20.514 50.2119 20.514C49.9374 20.514 49.6677 20.591 49.4292 20.7375L36.5064 28.7868C36.015 29.0849 35.7388 29.6481 35.7388 30.2443V46.3772C35.7388 46.9734 36.0458 47.5366 36.5064 47.8347L49.4292 55.8846C49.6677 56.0311 49.9374 56.1081 50.2119 56.1081C50.4863 56.1081 50.756 56.0311 50.9946 55.8846L63.9176 47.8347C64.4087 47.5366 64.6852 46.9734 64.6852 46.3772V30.2446C64.6852 29.6484 64.3779 29.0852 63.9176 28.7871L50.9946 20.7375Z" fill="white"/>
</mask>
<g mask="url(#mask0_16_84)">
<path d="M50.9946 20.7375C50.756 20.591 50.4863 20.514 50.2119 20.514C49.9374 20.514 49.6677 20.591 49.4292 20.7375L36.5064 28.7868C36.015 29.0849 35.7388 29.6481 35.7388 30.2443V46.3772C35.7388 46.9734 36.0458 47.5366 36.5064 47.8347L49.4292 55.8846C49.6677 56.0311 49.9374 56.1081 50.2119 56.1081C50.4863 56.1081 50.756 56.0311 50.9946 55.8846L63.9176 47.8347C64.4087 47.5366 64.6852 46.9734 64.6852 46.3772V30.2446C64.6852 29.6484 64.3779 29.0852 63.9176 28.7871L50.9946 20.7375Z" fill="url(#paint0_linear_16_84)"/>
<path d="M63.9482 28.7871L50.964 20.7375C50.8364 20.668 50.7027 20.6125 50.5648 20.5719L36.015 47.471C36.1355 47.6298 36.2811 47.7644 36.445 47.8685L49.4292 55.9184C49.7975 56.1503 50.2273 56.2165 50.6262 56.0838L64.286 29.1187C64.1938 28.9863 64.0709 28.8866 63.9482 28.7874V28.7871Z" fill="url(#paint1_linear_16_84)"/>
<path fill-rule="evenodd" clip-rule="evenodd" d="M63.979 47.835C64.3473 47.6031 64.6236 47.2056 64.7465 46.7751L50.5032 20.5386C50.1348 20.4724 49.7357 20.5054 49.3984 20.7373L36.5061 28.7541L50.4111 56.1167C50.6133 56.081 50.8097 56.0141 50.9943 55.9181L63.9787 47.8353L63.979 47.835Z" fill="url(#paint2_linear_16_84)"/>
<path fill-rule="evenodd" clip-rule="evenodd" d="M63.979 47.835L51.0254 55.8848C50.8425 55.9855 50.6454 56.0526 50.4421 56.0835L50.6878 56.5805L65.0533 47.6034V47.4045L64.6849 46.7418C64.6236 47.2056 64.3473 47.6031 63.979 47.835V47.835Z" fill="url(#paint3_linear_16_84)"/>
<path fill-rule="evenodd" clip-rule="evenodd" d="M63.979 47.835L51.0254 55.8848C50.8425 55.9855 50.6454 56.0526 50.4421 56.0835L50.6878 56.5805L65.0533 47.6034V47.4045L64.6849 46.7418C64.6236 47.2056 64.3473 47.6031 63.979 47.835V47.835Z" fill="url(#paint4_linear_16_84)"/>
</g>
</g>
<defs>
<linearGradient id="paint0_linear_16_84" x1="55.4768" y1="26.7383" x2="39.7272" y2="49.6694" gradientUnits="userSpaceOnUse">
<stop stop-color="#41873F"/>
<stop offset="0.3288" stop-color="#418B3D"/>
<stop offset="0.6352" stop-color="#419637"/>
<stop offset="0.9319" stop-color="#3FA92D"/>
<stop offset="1" stop-color="#3FAE2A"/>
</linearGradient>
<linearGradient id="paint1_linear_16_84" x1="48.2498" y1="40.2008" x2="84.9057" y2="21.747" gradientUnits="userSpaceOnUse">
<stop offset="0.1376" stop-color="#41873F"/>
<stop offset="0.4032" stop-color="#54A044"/>
<stop offset="0.7136" stop-color="#66B848"/>
<stop offset="0.9081" stop-color="#6CC04A"/>
</linearGradient>
<linearGradient id="paint2_linear_16_84" x1="35.2666" y1="38.3115" x2="65.1699" y2="38.3115" gradientUnits="userSpaceOnUse">
<stop offset="0.09192" stop-color="#6CC04A"/>
<stop offset="0.2864" stop-color="#66B848"/>
<stop offset="0.5968" stop-color="#54A044"/>
<stop offset="0.8624" stop-color="#41873F"/>
</linearGradient>
<linearGradient id="paint3_linear_16_84" x1="35.2668" y1="51.6882" x2="65.1697" y2="51.6882" gradientUnits="userSpaceOnUse">
<stop offset="0.09192" stop-color="#6CC04A"/>
<stop offset="0.2864" stop-color="#66B848"/>
<stop offset="0.5968" stop-color="#54A044"/>
<stop offset="0.8624" stop-color="#41873F"/>
</linearGradient>
<linearGradient id="paint4_linear_16_84" x1="69.5262" y1="25.9755" x2="60.7539" y2="68.5686" gradientUnits="userSpaceOnUse">
<stop stop-color="#41873F"/>
<stop offset="0.3288" stop-color="#418B3D"/>
<stop offset="0.6352" stop-color="#419637"/>
<stop offset="0.9319" stop-color="#3FA92D"/>
<stop offset="1" stop-color="#3FAE2A"/>
</linearGradient>
<clipPath id="clip0_16_84">
<rect width="136" height="90" fill="white"/>
</clipPath>
</defs>
</svg>
