<svg width="54" height="54" viewBox="0 0 54 54" fill="none" xmlns="http://www.w3.org/2000/svg">
<path d="M47.5753 12.7972L28.9718 1.99505C27.7986 1.3268 26.271 1.3268 25.0885 1.99505L6.28636 12.7972C5.07558 13.4937 4.21875 14.8028 4.21875 16.203V37.7785C4.21875 39.1787 5.09794 40.4882 6.30872 41.1885L11.2763 44.01C13.6506 45.1794 14.4897 45.1794 15.5701 45.1794C19.0856 45.1794 21.0938 43.0536 21.0938 39.3457V18.0453C21.0938 17.7445 20.9372 17.2969 20.6419 17.2969H18.2697C17.9693 17.2969 17.2969 17.7445 17.2969 18.0449V39.3453C17.2969 40.989 15.8102 42.6246 13.0317 41.2353L7.89877 38.2767C7.71989 38.1797 7.59375 37.9844 7.59375 37.7785V16.203C7.59375 15.9996 7.82789 15.7954 8.00803 15.6912L26.7494 4.90767C26.9245 4.80853 27.1818 4.80853 27.3565 4.90767L45.8692 15.6887C46.0464 15.7954 45.984 15.9933 45.984 16.203V37.7785C45.984 37.9844 46.0612 38.1848 45.8861 38.2839L27.2873 49.0738C27.1278 49.1695 26.93 49.1695 26.7553 49.0738L21.9852 46.2265C21.8413 46.143 21.6705 46.113 21.5325 46.1902C20.2053 46.9425 19.9606 47.0424 18.7156 47.474C18.4094 47.5807 17.9575 47.766 18.8886 48.2878L25.1315 51.9809C25.7293 52.3268 26.4085 52.5066 27.092 52.5066C27.7847 52.5066 28.4631 52.3268 29.0609 51.9809L47.5748 41.1885C48.7856 40.4831 49.3594 39.1787 49.3594 37.7785V16.203C49.3594 14.8028 48.7856 13.497 47.5753 12.7972V12.7972ZM32.8683 34.3596C27.9214 34.3596 26.8317 32.9948 26.4684 30.5349C26.4263 30.27 26.2014 29.9531 25.9318 29.9531H23.514C23.2149 29.9531 22.9745 30.3159 22.9745 30.6138C22.9745 33.7635 24.6869 37.5798 32.8687 37.5798C38.7914 37.5798 42.1871 35.2785 42.1871 31.2057C42.1871 27.1675 39.4588 26.1077 33.715 25.3475C27.9091 24.5801 27.3194 24.1924 27.3194 22.8323C27.3194 21.711 27.8189 20.2154 32.1178 20.2154C35.9589 20.2154 37.3747 21.0397 37.9574 23.6288C38.0071 23.8722 38.2295 24.0469 38.4805 24.0469H40.908C41.0573 24.0469 41.1999 23.9865 41.3045 23.8798C41.4058 23.7651 41.4593 23.6212 41.4458 23.4668C41.07 19.0084 38.108 16.9307 32.1173 16.9307C26.7886 16.9307 23.6098 19.181 23.6098 22.953C23.6098 27.0443 26.7726 28.1749 31.8878 28.6808C38.0071 29.2807 38.483 30.175 38.483 31.3786C38.483 33.469 36.8048 34.3596 32.8683 34.3596Z" fill="#83CD29"/>
</svg>
