<svg width="92" height="98" viewBox="0 0 92 98" fill="none" xmlns="http://www.w3.org/2000/svg">
<g clip-path="url(#clip0_15_53)">
<path d="M69.8855 30.0417H69.8893V30.0247L69.8855 30.0417Z" fill="black"/>
<path d="M79.3462 72.471C85.7325 72.471 88.0938 67.7262 90.3133 60.613C92.6133 53.2875 92.5137 46.2397 90.3133 36.8562C88.7302 30.0983 85.7363 24.9982 79.3462 24.9982H71.116V35.3739C71.116 43.4222 64.7067 50.2046 57.4003 50.2046H35.466C29.4668 50.2046 24.4988 55.6722 24.4988 62.083V84.3535C24.4988 90.6949 29.6738 94.4148 35.466 96.2319C42.4043 98.3961 49.082 98.7881 57.3965 96.2319C62.9203 94.5251 68.3637 91.0869 68.3637 84.3535V75.4478H46.4485V72.4751H79.3462V72.471ZM58.7727 81.3768C61.0497 81.3768 62.9012 83.3694 62.9012 85.8194C62.9012 88.2939 61.0535 90.2825 58.7727 90.2825C56.511 90.2825 54.6442 88.2694 54.6442 85.8194C54.6672 83.3449 56.5187 81.3768 58.7727 81.3768Z" fill="#F2BB30"/>
<path d="M13.202 72.4752H20.7383V61.7973C20.7383 54.0757 27.002 47.2688 34.454 47.2688H56.3845C62.4833 47.2688 67.3517 41.9114 67.3517 35.3904V13.1035C67.3517 6.7621 62.3415 2.0091 56.3845 0.94335C49.0322 -0.351067 41.0435 -0.277567 34.454 0.96785L34.4578 0.963766C25.1735 2.71143 23.4945 6.36193 23.4945 13.1198V22.0256H45.448V25.0024H15.2567C8.87033 25.0024 3.28133 29.0939 1.54099 36.8604C-0.471508 45.7661 -0.552008 51.3194 1.54099 60.6172C3.09733 67.5303 6.81949 72.4752 13.202 72.4752ZM33.0817 16.0762C30.8047 16.0762 28.9532 14.0835 28.9532 11.6335C28.98 9.15902 30.8047 7.17043 33.0817 7.17043C35.3433 7.17043 37.2102 9.17943 37.2102 11.6335C37.2102 14.0876 35.3625 16.0762 33.0817 16.0762Z" fill="#35668F"/>
</g>
<defs>
<clipPath id="clip0_15_53">
<rect width="92" height="98" fill="white"/>
</clipPath>
</defs>
</svg>
