<svg width="92" height="102" viewBox="0 0 92 102" fill="none" xmlns="http://www.w3.org/2000/svg">
<path d="M46 60.1205C50.5454 60.1205 54.2302 56.0352 54.2302 50.9957C54.2302 45.9563 50.5454 41.871 46 41.871C41.4546 41.871 37.7698 45.9563 37.7698 50.9957C37.7698 56.0352 41.4546 60.1205 46 60.1205Z" fill="#53C1DE"/>
<path d="M17.3037 67.1542C18.1125 67.4517 18.9213 67.7535 19.7493 68.0127C19.481 69.207 19.2472 70.3842 19.0287 71.5997C17.1427 82.6582 18.6147 91.4217 23.322 94.4307C28.175 97.5375 36.3323 94.35 44.275 86.6405C44.9037 86.0242 45.5323 85.3867 46.161 84.7067C46.9507 85.5652 47.7787 86.3812 48.6028 87.176C56.2925 94.5072 63.894 97.4738 68.586 94.469C73.439 91.3623 75.0183 81.94 72.9713 70.465C72.8103 69.5895 72.6302 68.6927 72.4308 67.7747C73.0058 67.5962 73.5617 67.3965 74.1213 67.1967C84.4905 63.393 92 57.2347 92 50.9192C92 44.8842 84.9198 39.0277 75.1448 35.3005V35.2963C74.175 34.9393 73.2052 34.5993 72.2353 34.2805C72.3963 33.5453 72.542 32.8058 72.6838 32.0705C74.8957 20.196 73.439 10.659 68.5323 7.50975C63.8058 4.50075 56.097 7.62875 48.3 15.1597C47.5257 15.895 46.7743 16.6727 46.0537 17.4505C45.5668 16.932 45.0647 16.4135 44.5625 15.9162C36.386 7.86675 28.1942 4.4795 23.2875 7.65C18.5802 10.6802 17.1772 19.6648 19.1552 30.8933C19.3545 32.011 19.5692 33.1033 19.8183 34.221C18.6683 34.578 17.5375 34.9775 16.4757 35.3983C6.88083 39.083 0 44.9012 0 50.9192C0 57.137 7.32933 63.3675 17.3037 67.1542ZM41.7412 83.385C38.778 86.394 35.3433 88.7825 31.6058 90.4187C29.6125 91.4727 27.3125 91.5748 25.2617 90.678C22.4058 88.8463 21.2175 81.8125 22.8352 72.3478C23.0345 71.2343 23.2492 70.1165 23.4983 69.02C27.5233 69.9762 31.5828 70.635 35.6998 70.9707C38.0727 74.698 40.6755 78.2637 43.4623 81.6085C42.8873 82.2247 42.3123 82.824 41.7373 83.3807L41.7412 83.385ZM64.561 45.9765C63.7177 44.2212 62.8552 42.4702 61.9543 40.7575C61.0727 39.066 60.1565 37.3915 59.2058 35.7383C62.1 36.1378 64.8677 36.6733 67.4552 37.332C66.6272 40.2815 65.6573 43.1502 64.561 45.9765ZM64.5955 55.896C65.7455 58.786 66.7537 61.7142 67.6315 64.7232C64.8447 65.4202 62.0272 65.96 59.1867 66.317C60.1565 64.6425 61.0727 62.9297 61.9735 61.217C62.8897 59.4617 63.7522 57.6895 64.5955 55.896ZM62.5178 50.9405C61.3142 53.6902 60.0185 56.3975 58.6385 59.0665C57.2738 61.7142 55.8172 64.2855 54.2915 66.8355C51.6158 67.0565 48.829 67.1542 46.0077 67.1542C43.1863 67.1542 40.457 67.0565 37.8158 66.8737C36.2518 64.345 34.7798 61.7525 33.396 59.1047C32.0122 56.457 30.7357 53.7667 29.532 51.017H29.5243C30.7088 48.2672 32.0045 45.577 33.3692 42.9292C34.7338 40.2815 36.2097 37.7103 37.7545 35.1815C40.4493 34.9605 43.1978 34.8415 46.0038 34.8415C48.8098 34.8415 51.5737 34.9605 54.2532 35.1815C55.7788 37.6933 57.2355 40.2602 58.6193 42.891C60.0032 45.5217 61.295 48.212 62.5178 50.9405ZM30.0227 40.7957C29.141 42.4872 28.2785 44.217 27.4697 45.9723C26.3388 43.0058 25.3843 40.0988 24.5947 37.2895C27.1822 36.652 29.9307 36.1335 32.7865 35.734C31.8397 37.3873 30.9043 39.0787 30.0227 40.7957ZM27.4735 56.0532C28.3015 57.8085 29.1448 59.5425 30.0418 61.2552C30.958 62.9892 31.8933 64.7232 32.8823 66.4147C30.0802 66.0747 27.2933 65.5775 24.5448 64.9187C25.3345 62.05 26.3235 59.0835 27.4735 56.0532ZM46.1457 78.54C44.3133 76.3512 42.481 73.9245 40.7023 71.3107C42.4273 71.3915 44.206 71.4297 46.0038 71.4297C47.8553 71.4297 49.6685 71.3915 51.4663 71.2895C49.8142 73.8182 48.0355 76.2322 46.1457 78.54ZM69.6325 84.524C69.4677 86.9508 68.3905 89.2202 66.6655 90.7545C63.8097 92.5862 57.7185 90.1977 51.1405 83.9417C50.3853 83.2235 49.6302 82.4457 48.8597 81.651C51.6082 78.285 54.142 74.7193 56.442 70.975C60.5552 70.5968 64.653 69.8997 68.6972 68.884C68.8773 69.7 69.0383 70.516 69.184 71.315C70.0657 75.6203 70.2075 80.0998 69.6325 84.524ZM71.1927 38.386C72.128 38.6835 73.025 39.0022 73.8875 39.321C82.2595 42.5085 88.136 47.2515 88.136 50.8767C88.136 54.7825 81.8647 59.823 72.8985 63.1082C72.3963 63.2867 71.8942 63.4652 71.3728 63.6267C70.1155 59.2832 68.5707 55.0417 66.792 50.915C68.517 46.852 69.9737 42.6657 71.1927 38.386ZM50.83 18.3855C57.5192 11.934 63.7522 9.40525 66.5927 11.2157C69.6287 13.1495 70.7978 20.9567 68.8927 31.2162C68.7662 31.892 68.6397 32.5508 68.4787 33.2095C64.4882 32.215 60.4478 31.4968 56.3845 31.0973C54.05 27.387 51.497 23.8425 48.7293 20.5148C49.4308 19.7795 50.1132 19.0825 50.83 18.3855ZM46.0383 23.5663C47.9243 25.8358 49.703 28.2243 51.3552 30.6935C47.7978 30.515 44.2213 30.515 40.664 30.6935C42.4235 28.1265 44.2405 25.738 46.0383 23.5663ZM25.1927 11.356C28.2133 9.40525 34.914 12.1932 41.975 19.125C42.4235 19.5627 42.872 20.043 43.3397 20.519C40.5528 23.8425 37.9845 27.387 35.6308 31.093C31.5713 31.4925 27.5463 32.1895 23.5558 33.167C23.322 32.1513 23.1265 31.1143 22.9272 30.0773C21.2367 20.434 22.3522 13.1665 25.1927 11.356ZM17.7368 39.44C18.7603 39.0405 19.803 38.6835 20.8457 38.3435C22.0685 42.6658 23.5405 46.9115 25.2463 51.0127C23.5213 55.1777 22.0302 59.4787 20.792 63.8605L20.7882 63.8648C20.033 63.6268 19.297 63.3675 18.561 63.087C14.7353 61.7525 10.3845 59.6402 7.24117 56.8735C5.428 55.4795 4.20517 53.329 3.864 50.915C3.864 47.2685 9.54117 42.6062 17.7368 39.44Z" fill="#53C1DE"/>
</svg>
